<svg xmlns="http://www.w3.org/2000/svg" viewBox="0 0 64 64" role="img" aria-label="AlmaSampler favicon">
  <defs>
    <radialGradient id="discGlow" cx="50%" cy="50%" r="55%">
      <stop offset="0%" stop-color="#2b2b2e"/>
      <stop offset="70%" stop-color="#17181b"/>
      <stop offset="100%" stop-color="#0c0d10"/>
    </radialGradient>
  </defs>

  <rect width="64" height="64" fill="#ffffff"/>

  <circle cx="32" cy="32" r="28" fill="url(#discGlow)"/>
  <circle cx="32" cy="32" r="10.5" fill="#f08a4b"/>
  <circle cx="32" cy="32" r="2.6" fill="#ffffff"/>

  <g fill="none" stroke="#f5f7fa" stroke-linecap="round" opacity="0.9">
    <path d="M17 19a20 20 0 0 0-5 10" stroke-width="1.8"/>
    <path d="M20 18a17 17 0 0 0-4 8" stroke-width="1.5"/>
    <path d="M23 17a14 14 0 0 0-3 6" stroke-width="1.2"/>
    <path d="M46 45a20 20 0 0 0 6-11" stroke-width="1.8"/>
    <path d="M43 46a17 17 0 0 0 5-8" stroke-width="1.5"/>
    <path d="M40 47a14 14 0 0 0 4-6" stroke-width="1.2"/>
  </g>
</svg>
